# xmcd
#
# Track frame offsets:
#	150
#	15278
#	32225
#	47551
#	59575
#	71310
#	86073
#	102500
#	116927
#	132794
#
# Disc length: 1969 seconds
#
# Revision: 0
# Processed by: cddbd v1.5.2PL0 Copyright (c) Steve Scherf et al.
# Submitted via: EasyCDDAExtractor 16.0.6.1
#
DISCID=8507af0a
DTITLE=Συλλογικός δίσκος - Λαϊκό τραγούδι 1954-1967, 1961-2
DYEAR=2008
DGENRE=Λαϊκή
TTITLE0=Καζαντζίδης Στέλιος-Μαρινέλλα - Καρδιά πληγωμένη [Γιώργος Λαύκας]
TTITLE1=Γαβαλάς Πάνος-Παναγιωτή Ζωή - Φύγε κι άσε με [Πάνος Γαβαλάς-Κώστας Βίρ
TTITLE1=βος]
TTITLE2=Γκρέϋ Καίτη - Το τραγούδι της ορφάνιας [Απόστολος Καλδάρας]
TTITLE3=Καζαντζίδης Στέλιος-Καλδάρας Απόστολος - Πέτρα θα ρίξω πίσω [Απόστολος
TTITLE3=Καλδάρας]
TTITLE4=Περπινιάδης Βαγγέλης-Γρίλλη Μαρία - Γιατί γλυκειά μου κλαις [Απόστολος
TTITLE4=Καλδάρας]
TTITLE5=Μπιθικώτσης Γρηγόρης-Τσιτσάνης Βασίλης - Το χρήμα δεν το λογαριάζω [Μα
TTITLE5=νώλης Χιώτης]
TTITLE6=Καζαντζίδης Στέλιος-Καλδάρας Απόστολος - Ένας σκύλος και μιά γυναίκα [
TTITLE6=Απόστολος Καλδάρας-Γιώργος Σαμολαδάς]
TTITLE7=Πάνου Πόλυ - Το παρελθόν μου το βαρύ [Μπάμπης Μπακάλης-Ευτ. Παπαγιαννο
TTITLE7=πούλου]
TTITLE8=Λύδια Γιώτα - Μού πέταξες την βέρα [Στράτος Ατταλίδης-Κώστας Βίρβος]
TTITLE9=Καζαντζίδης Στέλιος - Βροντούν οι πόρτες οι βαριές [Θεόδωρος Δερβενιώτ
TTITLE9=ης]
EXTD=
EXTT0=
EXTT1=
EXTT2=
EXTT3=
EXTT4=
EXTT5=
EXTT6=
EXTT7=
EXTT8=
EXTT9=
PLAYORDER=
